:SAMPLES-PER-SECOND 30
:FULLY-SPECIFIED
:DEGREES
616
root  -46.7107 34.2129 11.1897 -161.028 88.7872 -165.421
RightUpLeg  -17.2226 -13.106 -3.92956
RightLeg  21.992 -0.401658 -0.136135
RightFoot  2.56717 -0.0175258 0.0882131
RightToes  -29.9083 -0.140842 -0.248841
Spine  1.65962 -0.0255863 1.82424
Spine1  3.35183 0.172074 3.66883
HEad  -76.9651 0.646981 15.1353
LeftShoulder1  -1.94126e-019 -3.10601e-018 -2.51263e-017
LeftArm  -17.642 -4.65123 -58.3662
LeftForeArm  26.5568 -30.479 -5.16509
LeftHand  0.0538002 -2.63316 -0.573228
RightShoulder  -4.96962e-017 0 -2.36833e-017
RightArm  -50.5169 -7.00587 52.657
RightForeArm  52.9855 2.42647 0.408071
RightHand  0.0665339 -1.38192 2.17277
LeftUpLeg  -17.1733 10.7896 5.05444
LeftLeg  25.3869 7.45754 2.95375
LeftFoot  2.36223 -0.00385168 0.40619
LeftToes  -38.9376 2.40056e-006 -7.68412e-008
617
root  -46.6562 34.248 11.2677 -159.333 88.9234 -163.329
RightUpLeg  -16.5672 -12.9275 -3.89723
RightLeg  21.6205 -0.421115 -0.13932
RightFoot  2.59942 -0.0153396 0.0779711
RightToes  -29.5349 -0.140732 -0.248721
Spine  1.52061 0.0760279 1.96234
Spine1  3.10958 0.503319 3.74067
HEad  -76.1321 0.287335 15.0126
LeftShoulder1  -1.94126e-019 -3.10601e-018 -2.51263e-017
LeftArm  -24.7468 -7.57023 -50.8225
LeftForeArm  24.0441 -30.4599 -5.3222
LeftHand  -0.117758 -0.310474 2.45228
RightShoulder  -4.96962e-017 0 -2.36833e-017
RightArm  -54.7089 -3.03276 43.9907
RightForeArm  52.2369 4.26181 0.723722
RightHand  -0.152317 -1.77036 -4.64632
LeftUpLeg  -16.3549 11.2408 5.29198
LeftLeg  24.7756 7.11557 2.73202
LeftFoot  2.60683 -0.00374314 0.419065
LeftToes  -39.4088 2.40056e-006 -7.68412e-008
618
root  -46.5693 34.2737 11.3282 -160.266 89.0101 -163.899
RightUpLeg  -15.972 -12.8796 -3.93086
RightLeg  21.4187 -0.371147 -0.121584
RightFoot  2.61585 -0.0132573 0.0709973
RightToes  -29.5378 -0.140751 -0.248741
Spine  1.32012 0.176271 2.1305
Spine1  2.74801 0.825245 3.89233
HEad  -75.3916 -0.0636231 14.6101
LeftShoulder1  -1.94126e-019 -3.10601e-018 -2.51263e-017
LeftArm  -31.5792 -9.53602 -43.5172
LeftForeArm  20.8764 -32.117 -5.88327
LeftHand  -0.179458 1.94076 5.80345
RightShoulder  -4.96962e-017 0 -2.36833e-017
RightArm  -59.5615 0.587613 35.2353
RightForeArm  51.1598 7.70672 1.3239
RightHand  -0.234515 -2.3802 -8.71772
LeftUpLeg  -15.6189 11.2732 5.46837
LeftLeg  24.3557 7.12809 2.6773
LeftFoot  2.80692 -0.00450673 0.442608
LeftToes  -39.3748 2.40056e-006 -7.68412e-008
619
root  -46.4256 34.3116 11.3862 -158.935 89.1379 -162.021
RightUpLeg  -14.9842 -12.4888 -4.00574
RightLeg  21.0068 -0.57095 -0.180714
RightFoot  2.57291 -0.0105205 0.0561844
RightToes  -29.3429 -0.139237 -0.247147
Spine  1.12267 0.286456 2.28193
Spine1  2.38968 1.12122 4.09677
HEad  -75.0163 -0.444065 13.9337
LeftShoulder1  -1.94126e-019 -3.10601e-018 -2.51263e-017
LeftArm  -38.4954 -10.1876 -37.1056
LeftForeArm  18.2332 -35.7831 -7.00348
LeftHand  -0.170762 3.18578 8.41023
RightShoulder  -4.96962e-017 0 -2.36833e-017
RightArm  -62.1206 3.84483 27.024
RightForeArm  45.7432 12.1291 1.56166
RightHand  -0.210373 -3.02133 -9.78551
LeftUpLeg  -14.5394 11.2964 5.7143
LeftLeg  23.8338 7.13092 2.60485
LeftFoot  2.9363 -0.00507093 0.460201
LeftToes  -38.9546 2.40056e-006 -7.68412e-008
620
root  -46.25 34.3523 11.4255 -154.05 89.305 -156.624
RightUpLeg  -13.9669 -12.0577 -4.08278
RightLeg  20.5578 -0.786091 -0.240802
RightFoot  2.50134 -0.00809165 0.0470122
RightToes  -28.9806 -0.137037 -0.244833
Spine  0.881854 0.350061 2.34527
Spine1  1.93954 1.26485 4.24318
HEad  -74.7615 -0.501476 13.4595
LeftShoulder1  -1.94126e-019 -3.10601e-018 -2.51263e-017
LeftArm  -44.6808 -9.37757 -31.5982
LeftForeArm  15.5353 -42.0875 -9.1061
LeftHand  -0.167795 3.44196 9.31257
RightShoulder  -4.96962e-017 0 -2.36833e-017
RightArm  -65.2684 6.25075 20.2776
RightForeArm  39.445 18.0812 1.90245
RightHand  -0.175021 -3.1641 -8.50246
LeftUpLeg  -13.4097 11.2366 5.92679
LeftLeg  23.2635 7.32004 2.59167
LeftFoot  3.07274 -0.00704703 0.496918
LeftToes  -39.0138 2.40056e-006 -7.68412e-008
621
root  -46.0439 34.3929 11.4573 -140.448 89.5831 -142.368
RightUpLeg  -12.7905 -11.445 -4.22376
RightLeg  20.1191 -1.03412 -0.307141
RightFoot  2.47036 -0.00609639 0.0450054
RightToes  -28.8737 -0.134545 -0.24221
Spine  0.679518 0.383285 2.30538
Spine1  1.54754 1.26509 4.29059
HEad  -74.4021 -0.603849 12.943
LeftShoulder1  -1.94126e-019 -3.10601e-018 -2.51263e-017
LeftArm  -49.3696 -7.96075 -27.0166
LeftForeArm  14.9123 -49.6351 -12.1366
LeftHand  -0.163238 3.66099 10.1683
RightShoulder  -4.96962e-017 0 -2.36833e-017
RightArm  -71.046 8.17373 15.2275
RightForeArm  36.8593 25.9542 3.5555
RightHand  -0.190118 -2.88666 -8.31133
LeftUpLeg  -12.0871 11.1419 6.16251
LeftLeg  22.759 7.54439 2.59649
LeftFoot  3.13082 -0.0091684 0.533108
LeftToes  -38.8888 2.40056e-006 -7.68412e-008
622
root  -45.8442 34.4102 11.5058 -100.675 89.7962 -102.174
RightUpLeg  -12.0642 -10.9831 -4.3149
RightLeg  20.0915 -1.1564 -0.342575
RightFoot  2.17423 -0.00409981 0.0436775
RightToes  -28.4093 -0.132154 -0.239689
Spine  0.376265 0.53583 2.40721
Spine1  0.938176 1.50871 4.52268
HEad  -73.452 -1.02025 12.5224
LeftShoulder1  -1.94126e-019 -3.10601e-018 -2.51263e-017
LeftArm  -53.2419 -6.40175 -24.0147
LeftForeArm  17.8654 -57.4369 -16.2943
LeftHand  -0.229693 3.07519 11.0725
RightShoulder  -4.96962e-017 0 -2.36833e-017
RightArm  -75.7304 9.22398 11.7639
RightForeArm  36.9539 37.2094 6.17779
RightHand  -0.199963 -3.04637 -9.35843
LeftUpLeg  -11.0971 10.9928 6.30057
LeftLeg  22.4222 7.9595 2.68649
LeftFoot  3.09343 -0.010271 0.550712
LeftToes  -38.6341 2.40056e-006 -7.68412e-008
623
root  -45.6102 34.4196 11.5674 -103.93 89.8871 -104.545
RightUpLeg  -10.8635 -10.8299 -4.53319
RightLeg  20.2688 -1.23063 -0.368659
RightFoot  1.72021 -0.00214868 0.0434253
RightToes  -27.9796 -0.130259 -0.237682
Spine  0.278331 0.701402 2.52243
Spine1  0.742057 1.85398 4.69406
HEad  -72.5688 -1.52666 12.6235
LeftShoulder1  -1.94126e-019 -3.10601e-018 -2.51263e-017
LeftArm  -56.8291 -5.56542 -22.0841
LeftForeArm  24.0982 -64.8312 -22.3098
LeftHand  -0.28222 2.59281 11.428
RightShoulder  -4.96962e-017 0 -2.36833e-017
RightArm  -80.0869 10.0869 9.57235
RightForeArm  39.9744 48.6175 9.62664
RightHand  -0.241468 -2.81505 -10.4556
LeftUpLeg  -9.71805 10.3795 6.50899
LeftLeg  22.2302 8.3441 2.78443
LeftFoot  3.08732 -0.0114241 0.566382
LeftToes  -38.2381 2.40056e-006 -7.68412e-008
624
root  -45.4001 34.3999 11.6387 -154.345 89.5128 -154.197
RightUpLeg  -9.83213 -11.0033 -4.54577
RightLeg  20.6318 -1.4306 -0.438261
RightFoot  1.21222 -0.000364915 0.0457193
RightToes  -27.8387 -0.129325 -0.236668
Spine  0.150743 0.744736 2.68101
Spine1  0.493748 1.9373 5.00041
HEad  -71.761 -2.28561 12.9433
LeftShoulder1  -1.94126e-019 -3.10601e-018 -2.51263e-017
LeftArm  -60.2938 -5.15363 -21.0336
LeftForeArm  34.8285 -71.7926 -32.6964
LeftHand  -0.344955 2.18043 12.2986
RightShoulder  -4.96962e-017 0 -2.36833e-017
RightArm  -84.823 11.6606 8.54618
RightForeArm  46.058 59.333 14.557
RightHand  -0.312728 -2.27972 -11.4081
LeftUpLeg  -8.92012 9.66866 6.84071
LeftLeg  22.6511 8.41629 2.87681
LeftFoot  2.89339 -0.0099503 0.538541
LeftToes  -37.6649 2.40056e-006 -7.68412e-008
625
root  -45.2283 34.3589 11.7091 -164.52 88.8771 -163.639
RightUpLeg  -8.98333 -11.0225 -4.54246
RightLeg  21.2837 -1.93314 -0.61576
RightFoot  0.397258 0.000411956 0.0622846
RightToes  -26.8571 -0.124414 -0.231186
Spine  0.0626139 0.69433 2.76111
Spine1  0.318517 1.82709 5.16765
HEad  -71.3635 -2.97193 13.6196
LeftShoulder1  -1.94126e-019 -3.10601e-018 -2.51263e-017
LeftArm  -63.9357 -5.77958 -20.5115
LeftForeArm  53.0386 -77.0959 -50.6805
LeftHand  -0.38231 2.09731 13.3279
RightShoulder  -4.96962e-017 0 -2.36833e-017
RightArm  -89.3473 13.952 8.64786
RightForeArm  54.206 68.9286 23.0405
RightHand  -0.334581 -2.37405 -12.6058
LeftUpLeg  -8.45406 8.66816 7.12063
LeftLeg  23.4391 8.60239 3.07185
LeftFoot  2.49856 -0.00708468 0.486416
LeftToes  -36.485 2.40056e-006 -7.68412e-008
626
root  -45.0718 34.3072 11.7666 -169.196 88.193 -167.54
RightUpLeg  -8.24164 -11.0841 -4.58566
RightLeg  22.1893 -2.46658 -0.828414
RightFoot  -0.386269 -0.000219184 0.0985808
RightToes  -26.307 -0.119335 -0.225498
Spine  -0.0640233 0.661141 2.8807
Spine1  0.0647428 1.74641 5.44971
HEad  -70.6249 -3.97903 13.8627
LeftShoulder1  -1.94126e-019 -3.10601e-018 -2.51263e-017
LeftArm  -66.6509 -7.00797 -20.896
LeftForeArm  83.6701 -79.8249 -82.3338
LeftHand  -0.386759 2.46777 15.1676
RightShoulder  -4.96962e-017 0 -2.36833e-017
RightArm  -92.6846 16.943 9.128
RightForeArm  70.5559 76.6599 39.7847
RightHand  -0.343221 -2.82696 -15.1876
LeftUpLeg  -7.98447 8.08148 7.39475
LeftLeg  24.215 8.30919 3.09471
LeftFoot  2.21516 -0.00527294 0.434281
LeftToes  -36.4659 2.40056e-006 -7.68412e-008
